<svg xmlns="http://www.w3.org/2000/svg" xmlns:xlink="http://www.w3.org/1999/xlink" width="1920" zoomAndPan="magnify" viewBox="0 0 1440 809.999993" height="1080" preserveAspectRatio="xMidYMid meet" version="1.0"><defs><g/></defs><g fill="#ff0000" fill-opacity="1"><g transform="translate(721.112992, 217.811428)"><g/></g></g><g fill="#00ffff" fill-opacity="1"><g transform="translate(750.810978, 214.164975)"><g/></g></g><g fill="#88ff55" fill-opacity="1"><g transform="translate(735.961984, 215.988201)"><g/></g></g><g fill="#ff0000" fill-opacity="1"><g transform="translate(242.711132, 389.388307)"><g><path d="M 112.21875 0 L 130.464844 -18.246094 L 130.464844 -60.214844 L 112.21875 -78.460938 L 38.316406 -78.460938 L 38.316406 -98.53125 L 130.464844 -98.53125 L 130.464844 -127.726562 L 27.371094 -127.726562 L 9.125 -109.480469 L 9.125 -67.511719 L 27.371094 -49.265625 L 101.269531 -49.265625 L 101.269531 -29.195312 L 9.125 -29.195312 L 9.125 0 Z M 112.21875 0 "/></g></g></g><g fill="#ff0000" fill-opacity="1"><g transform="translate(401.823571, 389.388307)"><g><path d="M 133.199219 0 L 133.199219 -29.195312 L 38.316406 -29.195312 L 38.316406 -98.53125 L 108.566406 -98.53125 L 108.566406 -76.636719 L 47.441406 -76.636719 L 47.441406 -47.441406 L 119.515625 -47.441406 L 137.761719 -65.6875 L 137.761719 -109.480469 L 119.515625 -127.726562 L 27.371094 -127.726562 L 9.125 -109.480469 L 9.125 -18.246094 L 27.371094 0 Z M 133.199219 0 "/></g></g></g><g fill="#ff0000" fill-opacity="1"><g transform="translate(568.234613, 389.388307)"><g><path d="M 125.902344 0 L 125.902344 -29.195312 L 43.792969 -29.195312 L 43.792969 -127.726562 L 0.914062 -127.726562 L 0.914062 -98.53125 L 14.597656 -98.53125 L 14.597656 0 Z M 125.902344 0 "/></g></g></g><g fill="#ff0000" fill-opacity="1"><g transform="translate(715.486846, 389.388307)"><g><path d="M 133.199219 0 L 133.199219 -29.195312 L 38.316406 -29.195312 L 38.316406 -98.53125 L 108.566406 -98.53125 L 108.566406 -76.636719 L 47.441406 -76.636719 L 47.441406 -47.441406 L 119.515625 -47.441406 L 137.761719 -65.6875 L 137.761719 -109.480469 L 119.515625 -127.726562 L 27.371094 -127.726562 L 9.125 -109.480469 L 9.125 -18.246094 L 27.371094 0 Z M 133.199219 0 "/></g></g></g><g fill="#ff0000" fill-opacity="1"><g transform="translate(881.897874, 389.388307)"><g><path d="M 133.199219 0 L 133.199219 -29.195312 L 38.316406 -29.195312 L 38.316406 -98.53125 L 108.566406 -98.53125 L 108.566406 -80.285156 L 137.761719 -80.285156 L 137.761719 -109.480469 L 119.515625 -127.726562 L 27.371094 -127.726562 L 9.125 -109.480469 L 9.125 -18.246094 L 27.371094 0 Z M 133.199219 0 "/></g></g></g><g fill="#ff0000" fill-opacity="1"><g transform="translate(1048.308902, 389.388307)"><g><path d="M 80.46875 0 L 80.46875 -98.53125 L 130.828125 -98.53125 L 130.828125 -127.726562 L 0.914062 -127.726562 L 0.914062 -98.53125 L 51.273438 -98.53125 L 51.273438 0 Z M 80.46875 0 "/></g></g></g><g fill="#00ffff" fill-opacity="1"><g transform="translate(272.409119, 385.741854)"><g><path d="M 112.21875 0 L 130.464844 -18.246094 L 130.464844 -60.214844 L 112.21875 -78.460938 L 38.316406 -78.460938 L 38.316406 -98.53125 L 130.464844 -98.53125 L 130.464844 -127.726562 L 27.371094 -127.726562 L 9.125 -109.480469 L 9.125 -67.511719 L 27.371094 -49.265625 L 101.269531 -49.265625 L 101.269531 -29.195312 L 9.125 -29.195312 L 9.125 0 Z M 112.21875 0 "/></g></g></g><g fill="#00ffff" fill-opacity="1"><g transform="translate(431.521557, 385.741854)"><g><path d="M 133.199219 0 L 133.199219 -29.195312 L 38.316406 -29.195312 L 38.316406 -98.53125 L 108.566406 -98.53125 L 108.566406 -76.636719 L 47.441406 -76.636719 L 47.441406 -47.441406 L 119.515625 -47.441406 L 137.761719 -65.6875 L 137.761719 -109.480469 L 119.515625 -127.726562 L 27.371094 -127.726562 L 9.125 -109.480469 L 9.125 -18.246094 L 27.371094 0 Z M 133.199219 0 "/></g></g></g><g fill="#00ffff" fill-opacity="1"><g transform="translate(597.932599, 385.741854)"><g><path d="M 125.902344 0 L 125.902344 -29.195312 L 43.792969 -29.195312 L 43.792969 -127.726562 L 0.914062 -127.726562 L 0.914062 -98.53125 L 14.597656 -98.53125 L 14.597656 0 Z M 125.902344 0 "/></g></g></g><g fill="#00ffff" fill-opacity="1"><g transform="translate(745.184832, 385.741854)"><g><path d="M 133.199219 0 L 133.199219 -29.195312 L 38.316406 -29.195312 L 38.316406 -98.53125 L 108.566406 -98.53125 L 108.566406 -76.636719 L 47.441406 -76.636719 L 47.441406 -47.441406 L 119.515625 -47.441406 L 137.761719 -65.6875 L 137.761719 -109.480469 L 119.515625 -127.726562 L 27.371094 -127.726562 L 9.125 -109.480469 L 9.125 -18.246094 L 27.371094 0 Z M 133.199219 0 "/></g></g></g><g fill="#00ffff" fill-opacity="1"><g transform="translate(911.59586, 385.741854)"><g><path d="M 133.199219 0 L 133.199219 -29.195312 L 38.316406 -29.195312 L 38.316406 -98.53125 L 108.566406 -98.53125 L 108.566406 -80.285156 L 137.761719 -80.285156 L 137.761719 -109.480469 L 119.515625 -127.726562 L 27.371094 -127.726562 L 9.125 -109.480469 L 9.125 -18.246094 L 27.371094 0 Z M 133.199219 0 "/></g></g></g><g fill="#00ffff" fill-opacity="1"><g transform="translate(1078.006888, 385.741854)"><g><path d="M 80.46875 0 L 80.46875 -98.53125 L 130.828125 -98.53125 L 130.828125 -127.726562 L 0.914062 -127.726562 L 0.914062 -98.53125 L 51.273438 -98.53125 L 51.273438 0 Z M 80.46875 0 "/></g></g></g><g fill="#88ff55" fill-opacity="1"><g transform="translate(257.560125, 387.56508)"><g><path d="M 112.21875 0 L 130.464844 -18.246094 L 130.464844 -60.214844 L 112.21875 -78.460938 L 38.316406 -78.460938 L 38.316406 -98.53125 L 130.464844 -98.53125 L 130.464844 -127.726562 L 27.371094 -127.726562 L 9.125 -109.480469 L 9.125 -67.511719 L 27.371094 -49.265625 L 101.269531 -49.265625 L 101.269531 -29.195312 L 9.125 -29.195312 L 9.125 0 Z M 112.21875 0 "/></g></g></g><g fill="#88ff55" fill-opacity="1"><g transform="translate(416.672563, 387.56508)"><g><path d="M 133.199219 0 L 133.199219 -29.195312 L 38.316406 -29.195312 L 38.316406 -98.53125 L 108.566406 -98.53125 L 108.566406 -76.636719 L 47.441406 -76.636719 L 47.441406 -47.441406 L 119.515625 -47.441406 L 137.761719 -65.6875 L 137.761719 -109.480469 L 119.515625 -127.726562 L 27.371094 -127.726562 L 9.125 -109.480469 L 9.125 -18.246094 L 27.371094 0 Z M 133.199219 0 "/></g></g></g><g fill="#88ff55" fill-opacity="1"><g transform="translate(583.083606, 387.56508)"><g><path d="M 125.902344 0 L 125.902344 -29.195312 L 43.792969 -29.195312 L 43.792969 -127.726562 L 0.914062 -127.726562 L 0.914062 -98.53125 L 14.597656 -98.53125 L 14.597656 0 Z M 125.902344 0 "/></g></g></g><g fill="#88ff55" fill-opacity="1"><g transform="translate(730.335838, 387.56508)"><g><path d="M 133.199219 0 L 133.199219 -29.195312 L 38.316406 -29.195312 L 38.316406 -98.53125 L 108.566406 -98.53125 L 108.566406 -76.636719 L 47.441406 -76.636719 L 47.441406 -47.441406 L 119.515625 -47.441406 L 137.761719 -65.6875 L 137.761719 -109.480469 L 119.515625 -127.726562 L 27.371094 -127.726562 L 9.125 -109.480469 L 9.125 -18.246094 L 27.371094 0 Z M 133.199219 0 "/></g></g></g><g fill="#88ff55" fill-opacity="1"><g transform="translate(896.746866, 387.56508)"><g><path d="M 133.199219 0 L 133.199219 -29.195312 L 38.316406 -29.195312 L 38.316406 -98.53125 L 108.566406 -98.53125 L 108.566406 -80.285156 L 137.761719 -80.285156 L 137.761719 -109.480469 L 119.515625 -127.726562 L 27.371094 -127.726562 L 9.125 -109.480469 L 9.125 -18.246094 L 27.371094 0 Z M 133.199219 0 "/></g></g></g><g fill="#88ff55" fill-opacity="1"><g transform="translate(1063.157895, 387.56508)"><g><path d="M 80.46875 0 L 80.46875 -98.53125 L 130.828125 -98.53125 L 130.828125 -127.726562 L 0.914062 -127.726562 L 0.914062 -98.53125 L 51.273438 -98.53125 L 51.273438 0 Z M 80.46875 0 "/></g></g></g><g fill="#ff0000" fill-opacity="1"><g transform="translate(28.513594, 550.460479)"><g><path d="M 111.304688 0 L 129.550781 -18.246094 L 129.550781 -109.480469 L 111.304688 -127.726562 L 0.914062 -127.726562 L 0.914062 -98.53125 L 100.355469 -98.53125 L 100.355469 -29.195312 L 43.792969 -29.195312 L 43.792969 -89.410156 L 14.597656 -89.410156 L 14.597656 0 Z M 111.304688 0 "/></g></g></g><g fill="#ff0000" fill-opacity="1"><g transform="translate(186.713719, 550.460479)"><g><path d="M 38.316406 0 L 38.316406 -127.726562 L 9.125 -127.726562 L 9.125 0 Z M 38.316406 0 "/></g></g></g><g fill="#ff0000" fill-opacity="1"><g transform="translate(253.681345, 550.460479)"><g><path d="M 107.65625 -49.265625 L 107.65625 -78.460938 L 43.792969 -78.460938 L 43.792969 -98.53125 L 125.902344 -98.53125 L 125.902344 -127.726562 L 0.914062 -127.726562 L 0.914062 -98.53125 L 14.597656 -98.53125 L 14.597656 0 L 43.792969 0 L 43.792969 -49.265625 Z M 107.65625 -49.265625 "/></g></g></g><g fill="#ff0000" fill-opacity="1"><g transform="translate(400.933577, 550.460479)"><g><path d="M 107.65625 -49.265625 L 107.65625 -78.460938 L 43.792969 -78.460938 L 43.792969 -98.53125 L 125.902344 -98.53125 L 125.902344 -127.726562 L 0.914062 -127.726562 L 0.914062 -98.53125 L 14.597656 -98.53125 L 14.597656 0 L 43.792969 0 L 43.792969 -49.265625 Z M 107.65625 -49.265625 "/></g></g></g><g fill="#ff0000" fill-opacity="1"><g transform="translate(548.185781, 550.460479)"><g><path d="M 38.316406 0 L 38.316406 -127.726562 L 9.125 -127.726562 L 9.125 0 Z M 38.316406 0 "/></g></g></g><g fill="#ff0000" fill-opacity="1"><g transform="translate(615.153396, 550.460479)"><g><path d="M 133.199219 0 L 133.199219 -29.195312 L 38.316406 -29.195312 L 38.316406 -98.53125 L 108.566406 -98.53125 L 108.566406 -80.285156 L 137.761719 -80.285156 L 137.761719 -109.480469 L 119.515625 -127.726562 L 27.371094 -127.726562 L 9.125 -109.480469 L 9.125 -18.246094 L 27.371094 0 Z M 133.199219 0 "/></g></g></g><g fill="#ff0000" fill-opacity="1"><g transform="translate(781.564425, 550.460479)"><g><path d="M 138.675781 -18.246094 L 138.675781 -127.726562 L 109.480469 -127.726562 L 109.480469 -29.195312 L 43.792969 -29.195312 L 43.792969 -127.726562 L 0.914062 -127.726562 L 0.914062 -98.53125 L 14.597656 -98.53125 L 14.597656 -18.246094 L 32.84375 0 L 120.429688 0 Z M 138.675781 -18.246094 "/></g></g></g><g fill="#ff0000" fill-opacity="1"><g transform="translate(948.887766, 550.460479)"><g><path d="M 125.902344 0 L 125.902344 -29.195312 L 43.792969 -29.195312 L 43.792969 -127.726562 L 0.914062 -127.726562 L 0.914062 -98.53125 L 14.597656 -98.53125 L 14.597656 0 Z M 125.902344 0 "/></g></g></g><g fill="#ff0000" fill-opacity="1"><g transform="translate(1096.140026, 550.460479)"><g><path d="M 80.46875 0 L 80.46875 -98.53125 L 130.828125 -98.53125 L 130.828125 -127.726562 L 0.914062 -127.726562 L 0.914062 -98.53125 L 51.273438 -98.53125 L 51.273438 0 Z M 80.46875 0 "/></g></g></g><g fill="#ff0000" fill-opacity="1"><g transform="translate(1247.406457, 550.460479)"><g><path d="M 119.515625 0 L 137.761719 -18.246094 L 137.761719 -127.726562 L 108.566406 -127.726562 L 108.566406 -79.371094 L 38.316406 -79.371094 L 38.316406 -127.726562 L 9.125 -127.726562 L 9.125 -68.425781 L 27.371094 -50.179688 L 108.566406 -50.179688 L 108.566406 -29.195312 L 18.246094 -29.195312 L 18.246094 0 Z M 119.515625 0 "/></g></g></g><g fill="#00ffff" fill-opacity="1"><g transform="translate(58.21158, 546.814026)"><g><path d="M 111.304688 0 L 129.550781 -18.246094 L 129.550781 -109.480469 L 111.304688 -127.726562 L 0.914062 -127.726562 L 0.914062 -98.53125 L 100.355469 -98.53125 L 100.355469 -29.195312 L 43.792969 -29.195312 L 43.792969 -89.410156 L 14.597656 -89.410156 L 14.597656 0 Z M 111.304688 0 "/></g></g></g><g fill="#00ffff" fill-opacity="1"><g transform="translate(216.411706, 546.814026)"><g><path d="M 38.316406 0 L 38.316406 -127.726562 L 9.125 -127.726562 L 9.125 0 Z M 38.316406 0 "/></g></g></g><g fill="#00ffff" fill-opacity="1"><g transform="translate(283.379331, 546.814026)"><g><path d="M 107.65625 -49.265625 L 107.65625 -78.460938 L 43.792969 -78.460938 L 43.792969 -98.53125 L 125.902344 -98.53125 L 125.902344 -127.726562 L 0.914062 -127.726562 L 0.914062 -98.53125 L 14.597656 -98.53125 L 14.597656 0 L 43.792969 0 L 43.792969 -49.265625 Z M 107.65625 -49.265625 "/></g></g></g><g fill="#00ffff" fill-opacity="1"><g transform="translate(430.631563, 546.814026)"><g><path d="M 107.65625 -49.265625 L 107.65625 -78.460938 L 43.792969 -78.460938 L 43.792969 -98.53125 L 125.902344 -98.53125 L 125.902344 -127.726562 L 0.914062 -127.726562 L 0.914062 -98.53125 L 14.597656 -98.53125 L 14.597656 0 L 43.792969 0 L 43.792969 -49.265625 Z M 107.65625 -49.265625 "/></g></g></g><g fill="#00ffff" fill-opacity="1"><g transform="translate(577.883768, 546.814026)"><g><path d="M 38.316406 0 L 38.316406 -127.726562 L 9.125 -127.726562 L 9.125 0 Z M 38.316406 0 "/></g></g></g><g fill="#00ffff" fill-opacity="1"><g transform="translate(644.851382, 546.814026)"><g><path d="M 133.199219 0 L 133.199219 -29.195312 L 38.316406 -29.195312 L 38.316406 -98.53125 L 108.566406 -98.53125 L 108.566406 -80.285156 L 137.761719 -80.285156 L 137.761719 -109.480469 L 119.515625 -127.726562 L 27.371094 -127.726562 L 9.125 -109.480469 L 9.125 -18.246094 L 27.371094 0 Z M 133.199219 0 "/></g></g></g><g fill="#00ffff" fill-opacity="1"><g transform="translate(811.262411, 546.814026)"><g><path d="M 138.675781 -18.246094 L 138.675781 -127.726562 L 109.480469 -127.726562 L 109.480469 -29.195312 L 43.792969 -29.195312 L 43.792969 -127.726562 L 0.914062 -127.726562 L 0.914062 -98.53125 L 14.597656 -98.53125 L 14.597656 -18.246094 L 32.84375 0 L 120.429688 0 Z M 138.675781 -18.246094 "/></g></g></g><g fill="#00ffff" fill-opacity="1"><g transform="translate(978.585752, 546.814026)"><g><path d="M 125.902344 0 L 125.902344 -29.195312 L 43.792969 -29.195312 L 43.792969 -127.726562 L 0.914062 -127.726562 L 0.914062 -98.53125 L 14.597656 -98.53125 L 14.597656 0 Z M 125.902344 0 "/></g></g></g><g fill="#00ffff" fill-opacity="1"><g transform="translate(1125.838012, 546.814026)"><g><path d="M 80.46875 0 L 80.46875 -98.53125 L 130.828125 -98.53125 L 130.828125 -127.726562 L 0.914062 -127.726562 L 0.914062 -98.53125 L 51.273438 -98.53125 L 51.273438 0 Z M 80.46875 0 "/></g></g></g><g fill="#00ffff" fill-opacity="1"><g transform="translate(1277.104443, 546.814026)"><g><path d="M 119.515625 0 L 137.761719 -18.246094 L 137.761719 -127.726562 L 108.566406 -127.726562 L 108.566406 -79.371094 L 38.316406 -79.371094 L 38.316406 -127.726562 L 9.125 -127.726562 L 9.125 -68.425781 L 27.371094 -50.179688 L 108.566406 -50.179688 L 108.566406 -29.195312 L 18.246094 -29.195312 L 18.246094 0 Z M 119.515625 0 "/></g></g></g><g fill="#88ff55" fill-opacity="1"><g transform="translate(43.362586, 548.637253)"><g><path d="M 111.304688 0 L 129.550781 -18.246094 L 129.550781 -109.480469 L 111.304688 -127.726562 L 0.914062 -127.726562 L 0.914062 -98.53125 L 100.355469 -98.53125 L 100.355469 -29.195312 L 43.792969 -29.195312 L 43.792969 -89.410156 L 14.597656 -89.410156 L 14.597656 0 Z M 111.304688 0 "/></g></g></g><g fill="#88ff55" fill-opacity="1"><g transform="translate(201.562712, 548.637253)"><g><path d="M 38.316406 0 L 38.316406 -127.726562 L 9.125 -127.726562 L 9.125 0 Z M 38.316406 0 "/></g></g></g><g fill="#88ff55" fill-opacity="1"><g transform="translate(268.530337, 548.637253)"><g><path d="M 107.65625 -49.265625 L 107.65625 -78.460938 L 43.792969 -78.460938 L 43.792969 -98.53125 L 125.902344 -98.53125 L 125.902344 -127.726562 L 0.914062 -127.726562 L 0.914062 -98.53125 L 14.597656 -98.53125 L 14.597656 0 L 43.792969 0 L 43.792969 -49.265625 Z M 107.65625 -49.265625 "/></g></g></g><g fill="#88ff55" fill-opacity="1"><g transform="translate(415.782569, 548.637253)"><g><path d="M 107.65625 -49.265625 L 107.65625 -78.460938 L 43.792969 -78.460938 L 43.792969 -98.53125 L 125.902344 -98.53125 L 125.902344 -127.726562 L 0.914062 -127.726562 L 0.914062 -98.53125 L 14.597656 -98.53125 L 14.597656 0 L 43.792969 0 L 43.792969 -49.265625 Z M 107.65625 -49.265625 "/></g></g></g><g fill="#88ff55" fill-opacity="1"><g transform="translate(563.034774, 548.637253)"><g><path d="M 38.316406 0 L 38.316406 -127.726562 L 9.125 -127.726562 L 9.125 0 Z M 38.316406 0 "/></g></g></g><g fill="#88ff55" fill-opacity="1"><g transform="translate(630.002389, 548.637253)"><g><path d="M 133.199219 0 L 133.199219 -29.195312 L 38.316406 -29.195312 L 38.316406 -98.53125 L 108.566406 -98.53125 L 108.566406 -80.285156 L 137.761719 -80.285156 L 137.761719 -109.480469 L 119.515625 -127.726562 L 27.371094 -127.726562 L 9.125 -109.480469 L 9.125 -18.246094 L 27.371094 0 Z M 133.199219 0 "/></g></g></g><g fill="#88ff55" fill-opacity="1"><g transform="translate(796.413417, 548.637253)"><g><path d="M 138.675781 -18.246094 L 138.675781 -127.726562 L 109.480469 -127.726562 L 109.480469 -29.195312 L 43.792969 -29.195312 L 43.792969 -127.726562 L 0.914062 -127.726562 L 0.914062 -98.53125 L 14.597656 -98.53125 L 14.597656 -18.246094 L 32.84375 0 L 120.429688 0 Z M 138.675781 -18.246094 "/></g></g></g><g fill="#88ff55" fill-opacity="1"><g transform="translate(963.736758, 548.637253)"><g><path d="M 125.902344 0 L 125.902344 -29.195312 L 43.792969 -29.195312 L 43.792969 -127.726562 L 0.914062 -127.726562 L 0.914062 -98.53125 L 14.597656 -98.53125 L 14.597656 0 Z M 125.902344 0 "/></g></g></g><g fill="#88ff55" fill-opacity="1"><g transform="translate(1110.989018, 548.637253)"><g><path d="M 80.46875 0 L 80.46875 -98.53125 L 130.828125 -98.53125 L 130.828125 -127.726562 L 0.914062 -127.726562 L 0.914062 -98.53125 L 51.273438 -98.53125 L 51.273438 0 Z M 80.46875 0 "/></g></g></g><g fill="#88ff55" fill-opacity="1"><g transform="translate(1262.255449, 548.637253)"><g><path d="M 119.515625 0 L 137.761719 -18.246094 L 137.761719 -127.726562 L 108.566406 -127.726562 L 108.566406 -79.371094 L 38.316406 -79.371094 L 38.316406 -127.726562 L 9.125 -127.726562 L 9.125 -68.425781 L 27.371094 -50.179688 L 108.566406 -50.179688 L 108.566406 -29.195312 L 18.246094 -29.195312 L 18.246094 0 Z M 119.515625 0 "/></g></g></g><g fill="#ff0000" fill-opacity="1"><g transform="translate(721.112992, 806.075014)"><g/></g></g><g fill="#00ffff" fill-opacity="1"><g transform="translate(750.810978, 802.42856)"><g/></g></g><g fill="#88ff55" fill-opacity="1"><g transform="translate(735.961984, 804.251787)"><g/></g></g></svg>