<svg xmlns="http://www.w3.org/2000/svg" xmlns:xlink="http://www.w3.org/1999/xlink" width="1920" zoomAndPan="magnify" viewBox="0 0 1440 809.999993" height="1080" preserveAspectRatio="xMidYMid meet" version="1.0"><defs><g/></defs><g fill="#ff0000" fill-opacity="1"><g transform="translate(726.639336, 252.651491)"><g/></g></g><g fill="#00ffff" fill-opacity="1"><g transform="translate(756.666361, 248.964637)"><g/></g></g><g fill="#88ff55" fill-opacity="1"><g transform="translate(741.652847, 250.808064)"><g/></g></g><g fill="#ff0000" fill-opacity="1"><g transform="translate(73.341415, 524.238942)"><g><path d="M 186.054688 0 L 216.304688 -30.253906 L 216.304688 -99.832031 L 186.054688 -130.085938 L 63.53125 -130.085938 L 63.53125 -163.363281 L 216.304688 -163.363281 L 216.304688 -211.769531 L 45.378906 -211.769531 L 15.125 -181.515625 L 15.125 -111.933594 L 45.378906 -81.683594 L 167.902344 -81.683594 L 167.902344 -48.402344 L 15.125 -48.402344 L 15.125 0 Z M 186.054688 0 "/></g></g></g><g fill="#ff0000" fill-opacity="1"><g transform="translate(337.14298, 524.238942)"><g><path d="M 133.414062 0 L 133.414062 -163.363281 L 216.910156 -163.363281 L 216.910156 -211.769531 L 1.511719 -211.769531 L 1.511719 -163.363281 L 85.007812 -163.363281 L 85.007812 0 Z M 133.414062 0 "/></g></g></g><g fill="#ff0000" fill-opacity="1"><g transform="translate(587.935962, 524.238942)"><g><path d="M 228.40625 0 L 228.40625 -181.515625 L 198.152344 -211.769531 L 22.6875 -211.769531 L 22.6875 -163.363281 L 180.003906 -163.363281 L 180.003906 -130.085938 L 45.378906 -130.085938 L 15.125 -99.832031 L 15.125 -30.253906 L 45.378906 0 L 164.875 0 L 164.875 -48.402344 L 63.53125 -48.402344 L 63.53125 -81.683594 L 180.003906 -81.683594 L 180.003906 -30.253906 L 210.253906 0 Z M 228.40625 0 "/></g></g></g><g fill="#ff0000" fill-opacity="1"><g transform="translate(863.838508, 524.238942)"><g><path d="M 184.539062 -51.429688 L 214.792969 -81.683594 L 214.792969 -181.515625 L 184.539062 -211.769531 L 1.511719 -211.769531 L 1.511719 -163.363281 L 166.390625 -163.363281 L 166.390625 -99.832031 L 72.605469 -99.832031 L 72.605469 -148.238281 L 24.203125 -148.238281 L 24.203125 0 L 72.605469 0 L 72.605469 -51.429688 L 123.128906 -51.429688 C 138.253906 -34.183594 153.078125 -16.941406 168.507812 0 L 229.917969 0 C 214.492188 -16.941406 199.667969 -34.183594 184.539062 -51.429688 Z M 184.539062 -51.429688 "/></g></g></g><g fill="#ff0000" fill-opacity="1"><g transform="translate(1129.152726, 524.238942)"><g><path d="M 133.414062 0 L 133.414062 -163.363281 L 216.910156 -163.363281 L 216.910156 -211.769531 L 1.511719 -211.769531 L 1.511719 -163.363281 L 85.007812 -163.363281 L 85.007812 0 Z M 133.414062 0 "/></g></g></g><g fill="#00ffff" fill-opacity="1"><g transform="translate(103.368439, 520.552088)"><g><path d="M 186.054688 0 L 216.304688 -30.253906 L 216.304688 -99.832031 L 186.054688 -130.085938 L 63.53125 -130.085938 L 63.53125 -163.363281 L 216.304688 -163.363281 L 216.304688 -211.769531 L 45.378906 -211.769531 L 15.125 -181.515625 L 15.125 -111.933594 L 45.378906 -81.683594 L 167.902344 -81.683594 L 167.902344 -48.402344 L 15.125 -48.402344 L 15.125 0 Z M 186.054688 0 "/></g></g></g><g fill="#00ffff" fill-opacity="1"><g transform="translate(367.170005, 520.552088)"><g><path d="M 133.414062 0 L 133.414062 -163.363281 L 216.910156 -163.363281 L 216.910156 -211.769531 L 1.511719 -211.769531 L 1.511719 -163.363281 L 85.007812 -163.363281 L 85.007812 0 Z M 133.414062 0 "/></g></g></g><g fill="#00ffff" fill-opacity="1"><g transform="translate(617.962987, 520.552088)"><g><path d="M 228.40625 0 L 228.40625 -181.515625 L 198.152344 -211.769531 L 22.6875 -211.769531 L 22.6875 -163.363281 L 180.003906 -163.363281 L 180.003906 -130.085938 L 45.378906 -130.085938 L 15.125 -99.832031 L 15.125 -30.253906 L 45.378906 0 L 164.875 0 L 164.875 -48.402344 L 63.53125 -48.402344 L 63.53125 -81.683594 L 180.003906 -81.683594 L 180.003906 -30.253906 L 210.253906 0 Z M 228.40625 0 "/></g></g></g><g fill="#00ffff" fill-opacity="1"><g transform="translate(893.865533, 520.552088)"><g><path d="M 184.539062 -51.429688 L 214.792969 -81.683594 L 214.792969 -181.515625 L 184.539062 -211.769531 L 1.511719 -211.769531 L 1.511719 -163.363281 L 166.390625 -163.363281 L 166.390625 -99.832031 L 72.605469 -99.832031 L 72.605469 -148.238281 L 24.203125 -148.238281 L 24.203125 0 L 72.605469 0 L 72.605469 -51.429688 L 123.128906 -51.429688 C 138.253906 -34.183594 153.078125 -16.941406 168.507812 0 L 229.917969 0 C 214.492188 -16.941406 199.667969 -34.183594 184.539062 -51.429688 Z M 184.539062 -51.429688 "/></g></g></g><g fill="#00ffff" fill-opacity="1"><g transform="translate(1159.179751, 520.552088)"><g><path d="M 133.414062 0 L 133.414062 -163.363281 L 216.910156 -163.363281 L 216.910156 -211.769531 L 1.511719 -211.769531 L 1.511719 -163.363281 L 85.007812 -163.363281 L 85.007812 0 Z M 133.414062 0 "/></g></g></g><g fill="#88ff55" fill-opacity="1"><g transform="translate(88.354926, 522.395515)"><g><path d="M 186.054688 0 L 216.304688 -30.253906 L 216.304688 -99.832031 L 186.054688 -130.085938 L 63.53125 -130.085938 L 63.53125 -163.363281 L 216.304688 -163.363281 L 216.304688 -211.769531 L 45.378906 -211.769531 L 15.125 -181.515625 L 15.125 -111.933594 L 45.378906 -81.683594 L 167.902344 -81.683594 L 167.902344 -48.402344 L 15.125 -48.402344 L 15.125 0 Z M 186.054688 0 "/></g></g></g><g fill="#88ff55" fill-opacity="1"><g transform="translate(352.156491, 522.395515)"><g><path d="M 133.414062 0 L 133.414062 -163.363281 L 216.910156 -163.363281 L 216.910156 -211.769531 L 1.511719 -211.769531 L 1.511719 -163.363281 L 85.007812 -163.363281 L 85.007812 0 Z M 133.414062 0 "/></g></g></g><g fill="#88ff55" fill-opacity="1"><g transform="translate(602.949473, 522.395515)"><g><path d="M 228.40625 0 L 228.40625 -181.515625 L 198.152344 -211.769531 L 22.6875 -211.769531 L 22.6875 -163.363281 L 180.003906 -163.363281 L 180.003906 -130.085938 L 45.378906 -130.085938 L 15.125 -99.832031 L 15.125 -30.253906 L 45.378906 0 L 164.875 0 L 164.875 -48.402344 L 63.53125 -48.402344 L 63.53125 -81.683594 L 180.003906 -81.683594 L 180.003906 -30.253906 L 210.253906 0 Z M 228.40625 0 "/></g></g></g><g fill="#88ff55" fill-opacity="1"><g transform="translate(878.852019, 522.395515)"><g><path d="M 184.539062 -51.429688 L 214.792969 -81.683594 L 214.792969 -181.515625 L 184.539062 -211.769531 L 1.511719 -211.769531 L 1.511719 -163.363281 L 166.390625 -163.363281 L 166.390625 -99.832031 L 72.605469 -99.832031 L 72.605469 -148.238281 L 24.203125 -148.238281 L 24.203125 0 L 72.605469 0 L 72.605469 -51.429688 L 123.128906 -51.429688 C 138.253906 -34.183594 153.078125 -16.941406 168.507812 0 L 229.917969 0 C 214.492188 -16.941406 199.667969 -34.183594 184.539062 -51.429688 Z M 184.539062 -51.429688 "/></g></g></g><g fill="#88ff55" fill-opacity="1"><g transform="translate(1144.166237, 522.395515)"><g><path d="M 133.414062 0 L 133.414062 -163.363281 L 216.910156 -163.363281 L 216.910156 -211.769531 L 1.511719 -211.769531 L 1.511719 -163.363281 L 85.007812 -163.363281 L 85.007812 0 Z M 133.414062 0 "/></g></g></g></svg>